<mxfile host="65bd71144e">
    <diagram id="iqNBcv5D5UAEnluReGte" name="Page-1">
        <mxGraphModel dx="2824" dy="867" grid="1" gridSize="10" guides="1" tooltips="1" connect="1" arrows="1" fold="1" page="1" pageScale="1" pageWidth="1169" pageHeight="827" math="0" shadow="0">
            <root>
                <mxCell id="0"/>
                <mxCell id="1" parent="0"/>
                <mxCell id="54" value="" style="endArrow=none;dashed=1;html=1;strokeColor=#808080;entryX=0;entryY=0.5;entryDx=0;entryDy=0;" parent="1" edge="1" target="51">
                    <mxGeometry width="50" height="50" relative="1" as="geometry">
                        <mxPoint x="119" y="279.66999999999996" as="sourcePoint"/>
                        <mxPoint x="350" y="280" as="targetPoint"/>
                    </mxGeometry>
                </mxCell>
                <mxCell id="87" value="" style="endArrow=none;dashed=1;html=1;strokeColor=#808080;exitX=1;exitY=0.5;exitDx=0;exitDy=0;" edge="1" parent="1" source="51">
                    <mxGeometry width="50" height="50" relative="1" as="geometry">
                        <mxPoint x="129" y="249.67000000000007" as="sourcePoint"/>
                        <mxPoint x="1160" y="280" as="targetPoint"/>
                    </mxGeometry>
                </mxCell>
                <mxCell id="63" value="" style="endArrow=none;dashed=1;html=1;strokeColor=#808080;" parent="1" target="58" edge="1">
                    <mxGeometry width="50" height="50" relative="1" as="geometry">
                        <mxPoint x="120" y="80" as="sourcePoint"/>
                        <mxPoint x="1210" y="80" as="targetPoint"/>
                    </mxGeometry>
                </mxCell>
                <mxCell id="68" value="" style="endArrow=none;dashed=1;html=1;startArrow=none;" parent="1" source="42" target="67" edge="1">
                    <mxGeometry width="50" height="50" relative="1" as="geometry">
                        <mxPoint x="770" y="160" as="sourcePoint"/>
                        <mxPoint x="1210" y="160" as="targetPoint"/>
                    </mxGeometry>
                </mxCell>
                <mxCell id="18" value="" style="endArrow=none;dashed=1;html=1;startArrow=none;" parent="1" source="67" edge="1">
                    <mxGeometry width="50" height="50" relative="1" as="geometry">
                        <mxPoint x="120" y="160" as="sourcePoint"/>
                        <mxPoint x="1040" y="160" as="targetPoint"/>
                    </mxGeometry>
                </mxCell>
                <mxCell id="43" value="" style="endArrow=none;dashed=1;html=1;strokeColor=#808080;" parent="1" target="42" edge="1">
                    <mxGeometry width="50" height="50" relative="1" as="geometry">
                        <mxPoint x="120" y="160" as="sourcePoint"/>
                        <mxPoint x="1210" y="160" as="targetPoint"/>
                    </mxGeometry>
                </mxCell>
                <mxCell id="41" value="" style="endArrow=none;dashed=1;html=1;strokeColor=#808080;" parent="1" target="40" edge="1">
                    <mxGeometry width="50" height="50" relative="1" as="geometry">
                        <mxPoint x="120" y="120" as="sourcePoint"/>
                        <mxPoint x="1210" y="120" as="targetPoint"/>
                    </mxGeometry>
                </mxCell>
                <mxCell id="57" value="" style="endArrow=none;dashed=1;html=1;startArrow=none;" parent="1" source="58" edge="1">
                    <mxGeometry width="50" height="50" relative="1" as="geometry">
                        <mxPoint x="120" y="80" as="sourcePoint"/>
                        <mxPoint x="1040" y="80" as="targetPoint"/>
                    </mxGeometry>
                </mxCell>
                <mxCell id="33" value="" style="endArrow=none;dashed=1;html=1;strokeColor=#808080;" parent="1" edge="1">
                    <mxGeometry width="50" height="50" relative="1" as="geometry">
                        <mxPoint x="119" y="239.66999999999996" as="sourcePoint"/>
                        <mxPoint x="1160" y="240" as="targetPoint"/>
                    </mxGeometry>
                </mxCell>
                <mxCell id="23" value="" style="endArrow=none;dashed=1;html=1;strokeColor=#808080;" parent="1" edge="1">
                    <mxGeometry width="50" height="50" relative="1" as="geometry">
                        <mxPoint x="119" y="199.67000000000002" as="sourcePoint"/>
                        <mxPoint x="1160" y="200" as="targetPoint"/>
                    </mxGeometry>
                </mxCell>
                <mxCell id="KxlWeBCbH4CNowEoGFHw-25" style="edgeStyle=entityRelationEdgeStyle;rounded=1;orthogonalLoop=1;jettySize=auto;html=1;entryX=0;entryY=0.5;entryDx=0;entryDy=0;endArrow=none;endFill=0;strokeWidth=3;fontColor=#B3B3B3;exitX=1;exitY=0.5;exitDx=0;exitDy=0;strokeColor=#999999;" parent="1" source="21" target="KxlWeBCbH4CNowEoGFHw-24" edge="1">
                    <mxGeometry relative="1" as="geometry"/>
                </mxCell>
                <mxCell id="KxlWeBCbH4CNowEoGFHw-38" style="edgeStyle=entityRelationEdgeStyle;rounded=1;orthogonalLoop=1;jettySize=auto;html=1;endArrow=none;endFill=0;strokeWidth=3;fontColor=#B3B3B3;strokeColor=#999999;" parent="1" source="KxlWeBCbH4CNowEoGFHw-22" target="KxlWeBCbH4CNowEoGFHw-21" edge="1">
                    <mxGeometry relative="1" as="geometry"/>
                </mxCell>
                <mxCell id="KxlWeBCbH4CNowEoGFHw-37" style="edgeStyle=entityRelationEdgeStyle;rounded=1;orthogonalLoop=1;jettySize=auto;html=1;endArrow=none;endFill=0;strokeWidth=3;fontColor=#B3B3B3;strokeColor=#999999;" parent="1" source="KxlWeBCbH4CNowEoGFHw-23" target="KxlWeBCbH4CNowEoGFHw-22" edge="1">
                    <mxGeometry relative="1" as="geometry"/>
                </mxCell>
                <mxCell id="KxlWeBCbH4CNowEoGFHw-36" style="edgeStyle=entityRelationEdgeStyle;rounded=1;orthogonalLoop=1;jettySize=auto;html=1;endArrow=none;endFill=0;strokeWidth=3;fontColor=#B3B3B3;strokeColor=#999999;" parent="1" source="KxlWeBCbH4CNowEoGFHw-24" target="KxlWeBCbH4CNowEoGFHw-23" edge="1">
                    <mxGeometry relative="1" as="geometry"/>
                </mxCell>
                <mxCell id="KxlWeBCbH4CNowEoGFHw-24" value="" style="ellipse;whiteSpace=wrap;html=1;aspect=fixed;strokeWidth=3;fillColor=#CCCCCC;strokeColor=#4D4D4D;" parent="1" vertex="1">
                    <mxGeometry x="390" y="190" width="20" height="20" as="geometry"/>
                </mxCell>
                <mxCell id="KxlWeBCbH4CNowEoGFHw-29" value="Develop" style="text;html=1;strokeColor=none;fillColor=none;align=right;verticalAlign=middle;whiteSpace=wrap;rounded=0;shadow=0;rotation=0;fontColor=#B3B3B3;fontSize=32;" parent="1" vertex="1">
                    <mxGeometry x="6.539999999999992" y="150" width="100.93" height="20" as="geometry"/>
                </mxCell>
                <mxCell id="KxlWeBCbH4CNowEoGFHw-23" value="" style="ellipse;whiteSpace=wrap;html=1;aspect=fixed;strokeWidth=3;fillColor=#CCCCCC;strokeColor=#4D4D4D;" parent="1" vertex="1">
                    <mxGeometry x="469.9999999999999" y="190" width="20" height="20" as="geometry"/>
                </mxCell>
                <mxCell id="KxlWeBCbH4CNowEoGFHw-22" value="" style="ellipse;whiteSpace=wrap;html=1;aspect=fixed;strokeWidth=3;fillColor=#CCCCCC;strokeColor=#4D4D4D;" parent="1" vertex="1">
                    <mxGeometry x="549.9999999999999" y="190" width="20" height="20" as="geometry"/>
                </mxCell>
                <mxCell id="44" style="edgeStyle=entityRelationEdgeStyle;html=1;entryX=0;entryY=0.5;entryDx=0;entryDy=0;strokeColor=#999999;strokeWidth=3;endArrow=none;endFill=0;" parent="1" source="KxlWeBCbH4CNowEoGFHw-21" target="42" edge="1">
                    <mxGeometry relative="1" as="geometry"/>
                </mxCell>
                <mxCell id="KxlWeBCbH4CNowEoGFHw-21" value="" style="ellipse;whiteSpace=wrap;html=1;aspect=fixed;strokeWidth=3;fillColor=#CCCCCC;strokeColor=#4D4D4D;" parent="1" vertex="1">
                    <mxGeometry x="630" y="190" width="20" height="20" as="geometry"/>
                </mxCell>
                <mxCell id="20" style="edgeStyle=none;html=1;endArrow=none;endFill=0;strokeWidth=3;startArrow=none;strokeColor=#999999;" parent="1" source="62" target="42" edge="1">
                    <mxGeometry relative="1" as="geometry">
                        <mxPoint x="700" y="160" as="targetPoint"/>
                    </mxGeometry>
                </mxCell>
                <mxCell id="19" value="" style="ellipse;whiteSpace=wrap;html=1;aspect=fixed;strokeWidth=3;fillColor=#CCCCCC;strokeColor=#4D4D4D;" parent="1" vertex="1">
                    <mxGeometry x="190" y="150" width="20" height="20" as="geometry"/>
                </mxCell>
                <mxCell id="22" value="" style="edgeStyle=none;html=1;endArrow=none;endFill=0;strokeWidth=3;strokeColor=#999999;" parent="1" source="19" target="21" edge="1">
                    <mxGeometry relative="1" as="geometry">
                        <mxPoint x="320" y="160" as="targetPoint"/>
                        <mxPoint x="210" y="160" as="sourcePoint"/>
                    </mxGeometry>
                </mxCell>
                <mxCell id="21" value="" style="ellipse;whiteSpace=wrap;html=1;aspect=fixed;strokeWidth=3;fillColor=#CCCCCC;strokeColor=#4D4D4D;" parent="1" vertex="1">
                    <mxGeometry x="270" y="150" width="20" height="20" as="geometry"/>
                </mxCell>
                <mxCell id="24" value="Features" style="text;html=1;strokeColor=none;fillColor=none;align=right;verticalAlign=middle;whiteSpace=wrap;rounded=0;shadow=0;rotation=0;fontColor=#B3B3B3;fontSize=32;" parent="1" vertex="1">
                    <mxGeometry x="10" y="210" width="97.47" height="20" as="geometry"/>
                </mxCell>
                <mxCell id="25" style="edgeStyle=entityRelationEdgeStyle;rounded=1;orthogonalLoop=1;jettySize=auto;html=1;entryX=0;entryY=0.5;entryDx=0;entryDy=0;endArrow=none;endFill=0;strokeWidth=3;fontColor=#B3B3B3;exitX=1;exitY=0.5;exitDx=0;exitDy=0;strokeColor=#999999;" parent="1" source="19" target="29" edge="1">
                    <mxGeometry relative="1" as="geometry">
                        <mxPoint x="250" y="200" as="sourcePoint"/>
                    </mxGeometry>
                </mxCell>
                <mxCell id="26" style="edgeStyle=entityRelationEdgeStyle;rounded=1;orthogonalLoop=1;jettySize=auto;html=1;endArrow=none;endFill=0;strokeWidth=3;fontColor=#B3B3B3;strokeColor=#999999;" parent="1" source="31" target="32" edge="1">
                    <mxGeometry relative="1" as="geometry"/>
                </mxCell>
                <mxCell id="27" style="edgeStyle=entityRelationEdgeStyle;rounded=1;orthogonalLoop=1;jettySize=auto;html=1;endArrow=none;endFill=0;strokeWidth=3;fontColor=#B3B3B3;strokeColor=#999999;" parent="1" source="30" target="31" edge="1">
                    <mxGeometry relative="1" as="geometry"/>
                </mxCell>
                <mxCell id="28" style="edgeStyle=entityRelationEdgeStyle;rounded=1;orthogonalLoop=1;jettySize=auto;html=1;endArrow=none;endFill=0;strokeWidth=3;fontColor=#B3B3B3;strokeColor=#999999;" parent="1" source="29" target="30" edge="1">
                    <mxGeometry relative="1" as="geometry"/>
                </mxCell>
                <mxCell id="29" value="" style="ellipse;whiteSpace=wrap;html=1;aspect=fixed;strokeWidth=3;fillColor=#CCCCCC;strokeColor=#4D4D4D;" parent="1" vertex="1">
                    <mxGeometry x="350" y="230" width="20" height="20" as="geometry"/>
                </mxCell>
                <mxCell id="30" value="" style="ellipse;whiteSpace=wrap;html=1;aspect=fixed;strokeWidth=3;fillColor=#CCCCCC;strokeColor=#4D4D4D;" parent="1" vertex="1">
                    <mxGeometry x="429.9999999999999" y="230" width="20" height="20" as="geometry"/>
                </mxCell>
                <mxCell id="31" value="" style="ellipse;whiteSpace=wrap;html=1;aspect=fixed;strokeWidth=3;fillColor=#CCCCCC;strokeColor=#4D4D4D;" parent="1" vertex="1">
                    <mxGeometry x="509.9999999999999" y="230" width="20" height="20" as="geometry"/>
                </mxCell>
                <mxCell id="69" style="edgeStyle=entityRelationEdgeStyle;html=1;entryX=0;entryY=0.5;entryDx=0;entryDy=0;strokeColor=#999999;strokeWidth=3;endArrow=none;endFill=0;" parent="1" source="32" target="67" edge="1">
                    <mxGeometry relative="1" as="geometry"/>
                </mxCell>
                <mxCell id="32" value="" style="ellipse;whiteSpace=wrap;html=1;aspect=fixed;strokeWidth=3;fillColor=#CCCCCC;strokeColor=#4D4D4D;" parent="1" vertex="1">
                    <mxGeometry x="750" y="230" width="20" height="20" as="geometry"/>
                </mxCell>
                <mxCell id="35" value="Hotfix" style="text;html=1;strokeColor=none;fillColor=none;align=right;verticalAlign=middle;whiteSpace=wrap;rounded=0;shadow=0;rotation=0;fontColor=#B3B3B3;fontSize=32;" parent="1" vertex="1">
                    <mxGeometry x="6.539999999999992" y="110" width="100.93" height="20" as="geometry"/>
                </mxCell>
                <mxCell id="36" value="" style="endArrow=none;dashed=1;html=1;startArrow=none;" parent="1" source="40" edge="1">
                    <mxGeometry width="50" height="50" relative="1" as="geometry">
                        <mxPoint x="120" y="120" as="sourcePoint"/>
                        <mxPoint x="1040" y="120" as="targetPoint"/>
                    </mxGeometry>
                </mxCell>
                <mxCell id="37" style="edgeStyle=none;html=1;endArrow=none;endFill=0;strokeWidth=3;startArrow=none;strokeColor=#999999;" parent="1" source="40" edge="1">
                    <mxGeometry relative="1" as="geometry">
                        <mxPoint x="380" y="120" as="targetPoint"/>
                    </mxGeometry>
                </mxCell>
                <mxCell id="61" style="edgeStyle=entityRelationEdgeStyle;html=1;strokeColor=#999999;strokeWidth=3;endArrow=none;endFill=0;" parent="1" source="40" target="62" edge="1">
                    <mxGeometry relative="1" as="geometry">
                        <mxPoint x="510" y="160" as="targetPoint"/>
                    </mxGeometry>
                </mxCell>
                <mxCell id="64" style="edgeStyle=entityRelationEdgeStyle;html=1;strokeColor=#999999;strokeWidth=3;endArrow=none;endFill=0;" parent="1" source="40" target="58" edge="1">
                    <mxGeometry relative="1" as="geometry"/>
                </mxCell>
                <mxCell id="71" style="edgeStyle=entityRelationEdgeStyle;html=1;strokeColor=#999999;strokeWidth=3;endArrow=none;endFill=0;" parent="1" source="40" edge="1">
                    <mxGeometry relative="1" as="geometry">
                        <mxPoint x="1160" y="120" as="targetPoint"/>
                    </mxGeometry>
                </mxCell>
                <mxCell id="40" value="" style="ellipse;whiteSpace=wrap;html=1;aspect=fixed;strokeWidth=3;fillColor=#CCCCCC;strokeColor=#4D4D4D;" parent="1" vertex="1">
                    <mxGeometry x="350" y="110" width="20" height="20" as="geometry"/>
                </mxCell>
                <mxCell id="66" style="edgeStyle=entityRelationEdgeStyle;html=1;strokeColor=#999999;strokeWidth=3;endArrow=none;endFill=0;" parent="1" source="42" target="67" edge="1">
                    <mxGeometry relative="1" as="geometry">
                        <mxPoint x="860" y="160" as="targetPoint"/>
                    </mxGeometry>
                </mxCell>
                <mxCell id="42" value="" style="ellipse;whiteSpace=wrap;html=1;aspect=fixed;strokeWidth=3;fillColor=#CCCCCC;strokeColor=#4D4D4D;" parent="1" vertex="1">
                    <mxGeometry x="750" y="150" width="20" height="20" as="geometry"/>
                </mxCell>
                <mxCell id="86" style="edgeStyle=entityRelationEdgeStyle;html=1;strokeColor=#999999;strokeWidth=3;endArrow=none;endFill=0;" parent="1" source="51" target="83" edge="1">
                    <mxGeometry relative="1" as="geometry"/>
                </mxCell>
                <mxCell id="51" value="" style="ellipse;whiteSpace=wrap;html=1;aspect=fixed;strokeWidth=3;fillColor=#CCCCCC;strokeColor=#4D4D4D;" parent="1" vertex="1">
                    <mxGeometry x="988.9300000000001" y="270" width="20" height="20" as="geometry"/>
                </mxCell>
                <mxCell id="52" value="Release" style="text;html=1;strokeColor=none;fillColor=none;align=right;verticalAlign=middle;whiteSpace=wrap;rounded=0;shadow=0;rotation=0;fontColor=#B3B3B3;fontSize=32;" parent="1" vertex="1">
                    <mxGeometry x="10.010000000000005" y="270" width="97.46" height="20" as="geometry"/>
                </mxCell>
                <mxCell id="55" value="Main" style="text;html=1;strokeColor=none;fillColor=none;align=right;verticalAlign=middle;whiteSpace=wrap;rounded=0;shadow=0;rotation=0;fontColor=#E6E6E6;fontSize=32;fontStyle=1" parent="1" vertex="1">
                    <mxGeometry x="6.539999999999992" y="70" width="100.93" height="20" as="geometry"/>
                </mxCell>
                <mxCell id="59" style="edgeStyle=entityRelationEdgeStyle;html=1;strokeColor=#999999;strokeWidth=3;endArrow=none;endFill=0;" parent="1" source="56" target="58" edge="1">
                    <mxGeometry relative="1" as="geometry"/>
                </mxCell>
                <mxCell id="60" style="edgeStyle=entityRelationEdgeStyle;html=1;entryX=0;entryY=0.5;entryDx=0;entryDy=0;strokeColor=#999999;strokeWidth=3;endArrow=none;endFill=0;" parent="1" source="56" target="40" edge="1">
                    <mxGeometry relative="1" as="geometry"/>
                </mxCell>
                <mxCell id="56" value="" style="ellipse;whiteSpace=wrap;html=1;aspect=fixed;strokeWidth=3;fillColor=#CCCCCC;strokeColor=#4D4D4D;" parent="1" vertex="1">
                    <mxGeometry x="190" y="70" width="20" height="20" as="geometry"/>
                </mxCell>
                <mxCell id="70" style="edgeStyle=entityRelationEdgeStyle;html=1;strokeColor=#999999;strokeWidth=3;endArrow=none;endFill=0;startArrow=none;" parent="1" source="83" edge="1">
                    <mxGeometry relative="1" as="geometry">
                        <mxPoint x="1040" y="80" as="targetPoint"/>
                    </mxGeometry>
                </mxCell>
                <mxCell id="58" value="" style="ellipse;whiteSpace=wrap;html=1;aspect=fixed;strokeWidth=3;fillColor=#CCCCCC;strokeColor=#4D4D4D;" parent="1" vertex="1">
                    <mxGeometry x="470" y="70" width="20" height="20" as="geometry"/>
                </mxCell>
                <mxCell id="65" value="" style="edgeStyle=none;html=1;endArrow=none;endFill=0;strokeWidth=3;startArrow=none;strokeColor=#999999;" parent="1" source="21" target="62" edge="1">
                    <mxGeometry relative="1" as="geometry">
                        <mxPoint x="750" y="160" as="targetPoint"/>
                        <mxPoint x="290" y="160" as="sourcePoint"/>
                    </mxGeometry>
                </mxCell>
                <mxCell id="62" value="" style="ellipse;whiteSpace=wrap;html=1;aspect=fixed;strokeWidth=3;fillColor=#CCCCCC;strokeColor=#4D4D4D;" parent="1" vertex="1">
                    <mxGeometry x="470" y="150" width="20" height="20" as="geometry"/>
                </mxCell>
                <mxCell id="72" style="edgeStyle=entityRelationEdgeStyle;html=1;strokeColor=#999999;strokeWidth=3;endArrow=none;endFill=0;" parent="1" source="67" edge="1">
                    <mxGeometry relative="1" as="geometry">
                        <mxPoint x="1160" y="160" as="targetPoint"/>
                    </mxGeometry>
                </mxCell>
                <mxCell id="76" style="edgeStyle=entityRelationEdgeStyle;html=1;entryX=0;entryY=0.5;entryDx=0;entryDy=0;strokeColor=#999999;strokeWidth=3;endArrow=none;endFill=0;" parent="1" source="67" target="51" edge="1">
                    <mxGeometry relative="1" as="geometry"/>
                </mxCell>
                <mxCell id="67" value="" style="ellipse;whiteSpace=wrap;html=1;aspect=fixed;strokeWidth=3;fillColor=#CCCCCC;strokeColor=#4D4D4D;" parent="1" vertex="1">
                    <mxGeometry x="870" y="150" width="20" height="20" as="geometry"/>
                </mxCell>
                <mxCell id="82" value="" style="edgeStyle=entityRelationEdgeStyle;html=1;strokeColor=#999999;strokeWidth=3;endArrow=none;endFill=0;" parent="1" source="58" target="83" edge="1">
                    <mxGeometry relative="1" as="geometry">
                        <mxPoint x="870" y="80" as="targetPoint"/>
                        <mxPoint x="490" y="80" as="sourcePoint"/>
                    </mxGeometry>
                </mxCell>
                <mxCell id="83" value="" style="ellipse;whiteSpace=wrap;html=1;aspect=fixed;strokeWidth=3;fillColor=#CCCCCC;strokeColor=#4D4D4D;" parent="1" vertex="1">
                    <mxGeometry x="1110" y="70" width="20" height="20" as="geometry"/>
                </mxCell>
                <mxCell id="88" style="edgeStyle=entityRelationEdgeStyle;html=1;strokeColor=#999999;strokeWidth=3;endArrow=none;endFill=0;exitX=1;exitY=0.5;exitDx=0;exitDy=0;" edge="1" parent="1" source="51">
                    <mxGeometry relative="1" as="geometry">
                        <mxPoint x="1160" y="280" as="targetPoint"/>
                        <mxPoint x="900" y="170" as="sourcePoint"/>
                    </mxGeometry>
                </mxCell>
            </root>
        </mxGraphModel>
    </diagram>
</mxfile>